<?xml version="1.0" encoding="UTF-8" standalone="no"?>
<!-- Created with Inkscape (http://www.inkscape.org/) -->

<svg
   xmlns:dc="http://purl.org/dc/elements/1.1/"
   xmlns:cc="http://creativecommons.org/ns#"
   xmlns:rdf="http://www.w3.org/1999/02/22-rdf-syntax-ns#"
   xmlns:svg="http://www.w3.org/2000/svg"
   xmlns="http://www.w3.org/2000/svg"
   xmlns:xlink="http://www.w3.org/1999/xlink"
   xmlns:sodipodi="http://sodipodi.sourceforge.net/DTD/sodipodi-0.dtd"
   xmlns:inkscape="http://www.inkscape.org/namespaces/inkscape"
   width="17mm"
   height="17mm"
   viewBox="0 0 60.236219 60.236219"
   id="svg4672"
   version="1.1"
   inkscape:version="0.92.3 (2405546, 2018-03-11)"
   sodipodi:docname="genealloy.svg">
  <defs
     id="defs4674">
    <marker
       inkscape:stockid="DotS"
       orient="auto"
       refY="0"
       refX="0"
       id="DotS"
       style="overflow:visible"
       inkscape:isstock="true">
      <path
         id="path1517"
         d="m -2.5,-1 c 0,2.76 -2.24,5 -5,5 -2.76,0 -5,-2.24 -5,-5 0,-2.76 2.24,-5 5,-5 2.76,0 5,2.24 5,5 z"
         style="fill:#000000;fill-opacity:1;fill-rule:evenodd;stroke:#000000;stroke-width:1.00000003pt;stroke-opacity:1"
         transform="matrix(0.2,0,0,0.2,1.48,0.2)"
         inkscape:connector-curvature="0" />
    </marker>
    <marker
       inkscape:stockid="DotM"
       orient="auto"
       refY="0"
       refX="0"
       id="DotM"
       style="overflow:visible"
       inkscape:isstock="true">
      <path
         id="path1514"
         d="m -2.5,-1 c 0,2.76 -2.24,5 -5,5 -2.76,0 -5,-2.24 -5,-5 0,-2.76 2.24,-5 5,-5 2.76,0 5,2.24 5,5 z"
         style="fill:#000000;fill-opacity:1;fill-rule:evenodd;stroke:#000000;stroke-width:1.00000003pt;stroke-opacity:1"
         transform="matrix(0.4,0,0,0.4,2.96,0.4)"
         inkscape:connector-curvature="0" />
    </marker>
    <marker
       inkscape:stockid="DotL"
       orient="auto"
       refY="0"
       refX="0"
       id="DotL"
       style="overflow:visible"
       inkscape:isstock="true">
      <path
         id="path1511"
         d="m -2.5,-1 c 0,2.76 -2.24,5 -5,5 -2.76,0 -5,-2.24 -5,-5 0,-2.76 2.24,-5 5,-5 2.76,0 5,2.24 5,5 z"
         style="fill:#000000;fill-opacity:1;fill-rule:evenodd;stroke:#000000;stroke-width:1.00000003pt;stroke-opacity:1"
         transform="matrix(0.8,0,0,0.8,5.92,0.8)"
         inkscape:connector-curvature="0" />
    </marker>
  </defs>
  <sodipodi:namedview
     id="base"
     pagecolor="#ffffff"
     bordercolor="#666666"
     borderopacity="1.0"
     inkscape:pageopacity="0.0"
     inkscape:pageshadow="2"
     inkscape:zoom="7.9195959"
     inkscape:cx="44.844559"
     inkscape:cy="42.497145"
     inkscape:document-units="px"
     inkscape:current-layer="layer1"
     showgrid="false"
     fit-margin-top="0.5"
     fit-margin-left="0.5"
     fit-margin-bottom="0.5"
     fit-margin-right="0.5"
     inkscape:window-width="2433"
     inkscape:window-height="2104"
     inkscape:window-x="1407"
     inkscape:window-y="0"
     inkscape:window-maximized="0" />
  <metadata
     id="metadata4677">
    <rdf:RDF>
      <cc:Work
         rdf:about="">
        <dc:format>image/svg+xml</dc:format>
        <dc:type
           rdf:resource="http://purl.org/dc/dcmitype/StillImage" />
        <dc:title></dc:title>
      </cc:Work>
    </rdf:RDF>
  </metadata>
  <g
     inkscape:label="Layer 1"
     inkscape:groupmode="layer"
     id="layer1"
     transform="translate(-14.452634,-92.615096)">
    <use
       id="use79769-8-2"
       xlink:href="#home"
       transform="matrix(0.12554633,0,0,0.12554633,-130.90715,201.79233)"
       x="0"
       y="0"
       width="100%"
       height="100%" />
    <path
       style="fill:none;stroke:#000000;stroke-width:3.75;stroke-linecap:butt;stroke-linejoin:miter;stroke-miterlimit:4;stroke-dasharray:7.49999995, 3.74999998;stroke-dashoffset:0;stroke-opacity:1"
       d="m 36.463153,100.63556 c -0.01658,11.71933 17.945805,13.93574 17.545423,23.75948 -0.32784,8.04385 -17.73145,11.45664 -17.550466,21.63823"
       id="path1870"
       inkscape:connector-curvature="0"
       sodipodi:nodetypes="csc" />
    <path
       style="fill:none;stroke:#000000;stroke-width:3.75;stroke-linecap:butt;stroke-linejoin:miter;stroke-miterlimit:4;stroke-dasharray:none;stroke-opacity:1"
       d="M 54.009208,147.57951 C 53.943273,135.86036 36.41859,133.20657 36.354452,123.64788 36.287108,113.61122 54.124428,111.17902 53.871761,100.99896"
       id="path1870-7"
       inkscape:connector-curvature="0"
       sodipodi:nodetypes="csc" />
    <path
       style="fill:none;fill-opacity:1;stroke:#000000;stroke-width:3.87881207;stroke-miterlimit:4;stroke-dasharray:none;stroke-opacity:1"
       id="path4549"
       sodipodi:type="arc"
       sodipodi:cx="69.893013"
       sodipodi:cy="-3.4675786"
       sodipodi:rx="47.055058"
       sodipodi:ry="66.054077"
       sodipodi:start="0"
       sodipodi:end="0.64019832"
       sodipodi:open="true"
       d="M 116.94807,-3.4675786 A 47.055058,66.054077 0 0 1 107.6301,35.990122"
       transform="matrix(0.54029547,0.84147537,-0.97857734,0.20587955,0,0)" />
    <path
       style="fill:none;fill-opacity:1;stroke:#000000;stroke-width:3.87881207;stroke-miterlimit:4;stroke-dasharray:none;stroke-opacity:1"
       id="path4549-6"
       sodipodi:type="arc"
       sodipodi:cx="-208.17879"
       sodipodi:cy="-63.752277"
       sodipodi:rx="47.055058"
       sodipodi:ry="66.054077"
       sodipodi:start="0"
       sodipodi:end="0.64019832"
       sodipodi:open="true"
       d="m -161.12373,-63.752277 a 47.055058,66.054077 0 0 1 -9.31797,39.4577"
       transform="matrix(-0.53633766,-0.8440035,0.97953343,-0.20128156,0,0)" />
  </g>
</svg>
